<svg viewBox="0 0 104 102" xmlns="http://www.w3.org/2000/svg" fill-rule="evenodd" clip-rule="evenodd" stroke-linejoin="round" stroke-miterlimit="2">
  <path d="M2.062 1.302h64.484C60.187 3.68 40.854 16.76 36.037 25.556h-33.9L2.062 1.302z" fill="#ea6b23" fill-rule="nonzero"/>
  <path d="M53.453 70.795c-.937 8.774-.97 19.48-.971 30.693l-27.94.002c-.06-10.25.403-20.495 1.386-30.697l27.525.002z" fill="#de1f26" fill-rule="nonzero"/>
  <path d="M0 50.643h10.212v4.042h-4.47v3.408h4.47v3.409h-4.47v3.391h4.47v3.905H0V50.643zM23.767 50.643h10.216v4.042h-4.479v3.408h4.48v3.409h-4.48v3.391h4.48v3.905H23.766V50.643zM49.933 50.643h10.204v4.042h-4.466v3.408h4.458v3.409h-4.458v3.391h4.458v3.905H49.925l.008-18.155zM17.875 64.89h4.492v3.903H12.142V50.64h5.75l-.017 14.25zM35.02 50.643l2.847 18.155h7.383l3.458-18.155h-4.27l-2.242 12.284-2.171-12.284H35.02z" fill="#186f52" fill-rule="nonzero"/>
  <path fill="#186f52" d="M62.562 50.643h5.525v18.155h-5.525z"/>
  <path d="M68.083 56.04c.288-1.984 3.121-1.45 3.121-.33v13.088h5.538V53.402c0-3.25-4.609-4.584-8.613-1.692l-.046 4.33z" fill="#186f52" fill-rule="nonzero"/>
  <path d="M56.032 48.097c.56-6.954 10.072-18.29 19.295-21.292V.003C49.963 11.349 33.476 28.52 29.914 48.03l26.12.067z" fill="#de1f26" fill-rule="nonzero"/>
  <path d="M56.496 78.156c-.08.312-.117.633-.117.958a3.914 3.914 0 004.038 3.784 3.91 3.91 0 003.783-3.784 4.602 4.602 0 00-.117-.958h-.808c.092.308.142.633.142.958a3.137 3.137 0 01-2.896 3.354 3.138 3.138 0 01-3.354-3.354c0-.325.045-.646.133-.958h-.804zm3.791.692c.563 0 1.063-.042 1.088-.692h.696a1.145 1.145 0 01-1.075 1.217c-.025 0-.054.004-.08.004l1.271 1.966h-.758l-1.18-1.925h-.787v1.925h-.67v-3.187h.67v.692h.825zm3.796-.692a3.932 3.932 0 00-7.587 0h.791a3.122 3.122 0 013.863-2.13c1.025.3 1.83 1.1 2.125 2.13h.808zm-2.708 0v-.042c0-.537-.508-.641-.98-.641h-.933v.683h-.67v-1.25h1.7c1.05 0 1.57.387 1.57 1.25h-.687z" fill="#186f52" fill-rule="nonzero"/>
  <path d="M97.95 19.118a.452.452 0 01.13-.629l.04-.025c1.734-1.375 5.484-4.416 5.663-4.583a39.46 39.46 0 00-1.17-.638c-.213-.108-.288-.237-.217-.462.091-.288.637-2.5.854-3.388-.188.034-1.9.417-2.613.575-.312.075-.487 0-.608-.283-.233-.58-.517-1.146-.8-1.767-1.296 1.213-2.467 2.475-3.75 3.63l-.15-.075 1.725-7.171c-.858.341-1.667.641-2.45.975-.262.112-.375.041-.475-.167-.292-.596-1.55-3.117-1.912-3.846l-2.171 3.867a.276.276 0 01-.417.129c-.317-.142-1.88-.77-2.404-.983.562 2.533 1.196 4.975 1.687 7.441l-.15.071-3.933-3.75c-.196.48-.37.9-.546 1.321-.312.77-.17.683-1.033.554-.725-.108-1.446-.233-2.204-.354.029.13.666 2.383.987 3.42.092.293 0 .418-.3.518-.416.108-.791.241-1.22.37.087.092 3.712 3.175 5.479 4.667.537.454.537.454.225 1.063-.05.1-.559 1.033-.788 1.462.33-.062 5.042-1.092 6.408-1.392-.058 1.946-.12 3.9-.183 5.871h1.004l-.196-5.904c1.167.238 5.834 1.196 6.28 1.28-.284-.65-.513-1.234-.792-1.797" fill="#e61d25" fill-rule="nonzero"/>
</svg>
