<svg viewBox="0 0 831 123" xmlns="http://www.w3.org/2000/svg" fill-rule="evenodd" clip-rule="evenodd" stroke-linejoin="round" stroke-miterlimit="2">
  <path d="M69.084 3.94H7.213C4.808 3.94 2.404 3.9 0 3.878v27.825h36.621A108.872 108.872 0 0169.084 3.94" fill="#e86b24" fill-rule="nonzero"/>
  <path d="M35.424 43.538A115.86 115.86 0 0025.137 77.98c-1.738 11.408-2.68 22.941-3.9 34.425-.313 2.95-.38 5.925-.563 9H51.42c.084-.192.15-.396.188-.6.02-.763.025-1.525.029-2.288a260.858 260.858 0 013.608-43.97 60.714 60.714 0 0113-29.784 42.847 42.847 0 0111.538-10.18V3.226C75.529 5.571 71.487 7.58 67.67 9.946a83.623 83.623 0 00-32.246 33.592" fill="#dd1f26" fill-rule="nonzero"/>
  <path d="M301.593 4.286h-34.55V120.82c0 .583-.038 1.17-.058 1.754h62.695v-24.8H301.59l.004-93.488zM535.356 75.8h27.05V53.3h-27.084V30.215h27.084V4.228h-61.817v7.117c.02 36.325.046 72.65.079 108.975 0 .754.133 1.508.204 2.258h61.638V97.7h-27.154V75.8zM666.443 76.434c0-17.434-.217-34.871.083-52.304.5-11.825-8.02-22.113-19.729-23.83a3.982 3.982 0 01-.833-.3h-6.342c-.316.138-.65.246-.987.321a54.25 54.25 0 00-24.392 9.867c-.417.296-.858.554-1.692 1.083V4.225h-33.75v116.28c.038.7.117 1.395.238 2.083H612.5c.067-.833.184-1.63.184-2.442v-79.07c-.113-5.996 4.658-10.95 10.654-11.063a10.74 10.74 0 012.1.167 8.294 8.294 0 016.775 7.916c.075.875.1 1.759.08 2.638v79.425c.04.808.124 1.612.25 2.412h33.816c.046-15.379.075-30.758.083-46.137M492.893 4.245h-26.667l-13.858 75.488h-.47c-4.4-25.154-8.793-50.292-13.188-75.417h-30.792c.496 3.221.958 6.25 1.43 9.242l11.107 71.667c1.93 12.462 3.85 24.925 5.759 37.387h44.379c.442-2.183.908-4.358 1.32-6.55 6.555-34.758 13.097-69.517 19.634-104.28.442-2.487.859-4.94 1.346-7.537M690.477 106.667h-4.505v-5.242h5a3.82 3.82 0 012.575.725c.542.458.846 1.138.834 1.85.004.504-.142 1-.417 1.42-.296.45-.737.788-1.25.955-.725.22-1.48.32-2.237.292m2.862 2.429c-.38-.321-.8-.583-1.25-.788a5.516 5.516 0 003.37-1.47 3.996 3.996 0 001.093-2.842 4.465 4.465 0 00-.659-2.388 3.509 3.509 0 00-1.762-1.508 9.354 9.354 0 00-3.217-.417h-7.025v15.834h2.083v-7.034h2.434c.391-.008.779.013 1.166.075.342.088.663.225.959.417.408.296.766.65 1.062 1.058.417.505.9 1.25 1.513 2.184l2.083 3.296h2.633l-2.754-4.313a10.897 10.897 0 00-1.729-2.104" fill="#187053" fill-rule="nonzero"/>
  <path d="M689.443 120.73c-7.254 0-13.137-5.884-13.137-13.138 0-7.259 5.883-13.138 13.137-13.138 7.259 0 13.138 5.88 13.138 13.138-.009 7.25-5.884 13.133-13.138 13.137m0-28.117c-8.283 0-15 6.717-15 15 0 8.284 6.717 15 15 15 8.284 0 15-6.716 15-15 0-8.283-6.716-15-15-15" fill="#187053" fill-rule="nonzero"/>
  <path fill="#187053" d="M168.893 47.505h-59.254v26.379h59.254z"/>
  <path d="M400.126 97.745h-27.083V75.758h26.967v-22.5h-26.967V30.212h27.008V4.245h-61.833V6.43c.02 35.616.046 71.233.075 106.854 0 3.104.137 6.208.212 9.312h61.642l-.02-24.85zM253.957 122.575c.108-.392.183-.792.22-1.196V98.837a8.721 8.721 0 00-.158-1.092h-27.087V75.8h27.083V53.25h-27.054V30.24h27.083V4.275H192.35c-.055.57-.13.97-.13 1.375v20.604c.03 32.108.063 64.216.092 96.325l61.646-.004z" fill="#187053" fill-rule="nonzero"/>
  <path d="M802.243 91.28a2.219 2.219 0 01.63-3.08c.066-.041.133-.083.204-.116 8.445-6.713 26.733-21.538 27.616-22.309-2.058-1.129-3.854-2.158-5.7-3.108-1.037-.533-1.408-1.167-1.062-2.254.45-1.4 3.112-12.271 4.166-16.513-.908.171-9.262 1.967-12.754 2.805-1.516.362-2.379.095-2.97-1.38-1.142-2.829-2.5-5.579-3.909-8.608-6.32 5.908-12.02 12.083-18.333 17.692l-.725-.363c2.779-11.57 5.562-23.141 8.404-34.966-4.192 1.666-8.113 3.133-11.954 4.762-1.284.546-1.821.204-2.317-.808-1.43-2.917-7.562-15.196-9.333-18.75-1.504 2.687-8.459 15.054-10.58 18.858a1.34 1.34 0 01-2.008.62c-1.537-.682-9.166-3.75-11.733-4.803 2.746 12.358 5.833 24.262 8.233 36.279l-.725.337L738.202 37.2c-.963 2.342-1.817 4.396-2.65 6.45-1.53 3.75-.834 3.334-5.055 2.709-3.529-.534-7.05-1.13-10.745-1.73.137.638 3.245 11.626 4.816 16.667.446 1.43.03 2.113-1.458 2.521-1.942.533-3.854 1.17-5.946 1.817.417.416 18.104 15.47 26.713 22.75 2.612 2.208 2.616 2.208 1.095 5.175-.25.487-2.712 5.046-3.841 7.129 1.612-.296 24.583-5.33 31.25-6.792l-.9 28.63c1.633.05 3.266.05 4.904 0-.304-9.592-.604-19.176-.904-28.75 5.687 1.166 28.45 5.833 30.616 6.25-1.37-3.155-2.491-6-3.854-8.746" fill="#e61d25" fill-rule="nonzero"/>
</svg>
