<svg viewBox="0 0 109 143" xmlns="http://www.w3.org/2000/svg" fill-rule="evenodd" clip-rule="evenodd" stroke-linejoin="round" stroke-miterlimit="2">
  <path d="M54.206 69.713c15.834 0 28.696-15.605 28.696-34.855C82.902 15.608 78.685 0 54.206 0 29.727 0 25.51 15.608 25.51 34.854s12.85 34.854 28.696 34.854v.005zM108.344 121.53c-.53-33.534-4.917-43.092-38.43-49.142-8.937 8.017-22.483 8.017-31.429 0C5.34 78.371.694 87.805.085 120.438c-.05 2.667-.075 2.804-.083 2.5v3.525s7.98 16.088 54.2 16.088 54.196-16.088 54.196-16.088v-2.604c-.058-.77-.08-1.55-.058-2.325l.004-.004z" fill="currentColor" fill-rule="nonzero"/>
</svg>
