<svg width="22" height="21" xmlns="http://www.w3.org/2000/svg">
  <g fill="#FFF">
    <path d="M3.928 1.307l16.265 16.265q.052.052.099.109.047.057.087.118.041.061.076.126.035.065.063.133.028.068.05.139.021.07.035.142.015.072.022.146.007.073.007.147 0 .073-.007.147-.007.073-.022.145-.014.072-.035.143-.022.07-.05.138-.028.068-.063.133t-.075.127q-.041.06-.088.118-.047.057-.099.109l-.001.001q-.052.052-.11.099-.056.047-.117.088-.062.04-.127.075-.065.035-.133.063-.068.028-.138.05-.07.021-.143.035-.072.015-.145.022-.074.007-.147.007-.074 0-.147-.007-.074-.007-.146-.022-.072-.014-.142-.035-.07-.022-.139-.05-.068-.028-.133-.063t-.126-.076q-.061-.04-.118-.087-.057-.047-.11-.099L1.808 3.428q-.052-.052-.099-.109-.047-.057-.088-.118-.04-.061-.075-.126-.035-.065-.063-.133-.028-.068-.05-.139-.021-.07-.035-.142-.015-.073-.022-.146-.007-.073-.007-.147 0-.073.007-.147.007-.073.022-.145.014-.072.035-.143.022-.07.05-.138.028-.068.063-.133t.075-.127q.041-.06.088-.118.047-.057.099-.109l.001-.001q.052-.052.11-.099.056-.047.117-.088.062-.04.127-.075.065-.035.133-.063.068-.028.138-.05.07-.021.143-.035.072-.015.145-.022.074-.007.147-.007.074 0 .147.007t.146.022q.072.014.142.035.07.022.139.05.068.028.133.063t.126.075q.061.041.118.088.057.047.11.099z"/>
    <path d="M18.072 1.307L1.807 17.572q-.052.052-.099.109-.047.057-.087.118-.041.061-.076.126-.035.065-.063.133-.028.068-.05.139-.021.07-.035.142-.015.072-.022.146-.007.073-.007.147 0 .073.007.147.007.073.022.145.014.072.035.143.022.07.05.138.028.068.063.133t.075.127q.041.06.088.118.047.057.099.109l.001.001q.052.052.11.099.056.047.117.088.062.04.127.075.065.035.133.063.068.028.138.05.07.021.143.035.072.015.145.022.074.007.147.007.074 0 .147-.007.074-.007.146-.022.072-.014.142-.035.07-.022.139-.05.068-.028.133-.063t.126-.076q.061-.04.118-.087.057-.047.11-.099L20.192 3.428q.052-.052.099-.109.047-.057.088-.118.04-.061.075-.126.035-.065.063-.133.028-.068.05-.139.021-.07.035-.142.015-.073.022-.146.007-.073.007-.147 0-.073-.007-.147-.007-.073-.022-.145-.014-.072-.035-.143-.022-.07-.05-.138-.028-.068-.063-.133t-.075-.127q-.041-.06-.088-.118-.047-.057-.099-.109l-.001-.001q-.052-.052-.11-.099-.056-.047-.117-.088-.062-.04-.127-.075-.065-.035-.133-.063-.068-.028-.138-.05-.07-.021-.143-.035-.072-.015-.145-.022-.074-.007-.147-.007-.074 0-.147.007t-.146.022q-.072.014-.142.035-.07.022-.139.05-.068.028-.133.063t-.126.075q-.061.041-.118.088-.057.047-.11.099z"/>
  </g>
</svg>
