<svg viewBox="0 0 565 372" xmlns="http://www.w3.org/2000/svg" fill-rule="evenodd" clip-rule="evenodd" stroke-linejoin="round" stroke-miterlimit="2">
  <path d="M0 285.45h14.267v-13.233c0-16.056 8.927-26.756 26.766-26.756l8.917 1.784V263.3l-9.811-1.783c-5.35 0-8.028 3.567-8.028 8.917v15.016H49.95v16.056H32.111v67.789H14.267v-67.789H0V285.45zM96.224 283.667c23.189 0 43.705 17.839 43.705 43.705 0 25.867-20.516 43.706-43.705 43.706-23.195 0-43.706-17.839-43.706-43.706 0-25.866 20.511-43.705 43.706-43.705m0 71.355c16.95 0 25.867-12.488 25.867-27.65 0-15.16-8.917-27.65-25.867-27.65-16.95 0-25.867 12.49-25.867 27.65 0 15.162 8.917 27.65 25.867 27.65M191.514 283.667c23.194 0 43.706 17.839 43.706 43.705 0 25.867-20.512 43.706-43.706 43.706-23.189 0-43.706-17.839-43.706-43.706 0-25.866 20.517-43.705 43.706-43.705m0 71.355c16.95 0 25.867-12.488 25.867-27.65 0-15.16-8.917-27.65-25.867-27.65-16.944 0-25.867 12.49-25.867 27.65 0 15.162 8.923 27.65 25.867 27.65M328.732 369.295h-16.056l-1.783-7.134-.894-.894-.89.894c-5.35 5.35-14.271 8.917-23.188 8.917-23.195 0-42.817-17.839-42.817-43.706 0-25.866 19.622-43.705 42.817-43.705 8.739 0 17.839 3.566 23.189 8.916l.889.895.894-.895v-47.127h17.839v123.839zm-41.922-69.573c-16.95 0-26.045 12.49-26.045 27.65 0 15.162 9.095 27.65 26.045 27.65 15.166 0 25.866-12.488 25.866-27.65 0-15.16-10.7-27.65-25.866-27.65M383.897 283.693c23.189 0 43.706 17.839 43.706 43.705 0 25.867-20.517 43.706-43.706 43.706-23.194 0-43.706-17.839-43.706-43.706 0-25.866 20.512-43.705 43.706-43.705m0 71.355c16.944 0 25.861-12.488 25.861-27.65 0-15.16-8.917-27.65-25.861-27.65-16.95 0-25.867 12.49-25.867 27.65 0 15.162 8.917 27.65 25.867 27.65M439.057 285.478h16.039l1.778 8.922.894.889.889-.889c5.344-7.139 12.472-10.706 19.606-10.706 3.555 0 5.344 0 8.9 1.784v16.055h-10.69c-10.51 0-19.244 8.562-19.6 18.912v48.877h-17.816v-83.844zM531.939 317.256h14.611v-3.694c0-10.078-6.883-14.778-16.455-14.778-7.728 0-12.934 3.694-15.79 11.25l-15.955-3.356c3.533-14.277 15.789-23.344 31.906-23.344 22.505 0 33.755 11.083 33.755 33.417v52.56h-14.778l-1.672-11.083c-5.883 8.228-14.61 12.428-26.2 12.428-14.95 0-26.033-8.9-26.033-25.694 0-17.295 14.611-27.706 36.611-27.706m-7.556 37.95c5.873 0 11.084-1.844 15.45-5.539 4.528-3.86 6.717-9.072 6.717-15.955v-1.845h-15.283c-10.75 0-17.467 5.04-17.467 13.095 0 6.05 3.695 10.244 10.583 10.244M303.108 188.295c9.089-2.873 72.828-28.556 85.85-33.5a1.925 1.925 0 00.7-3.15c-1.433-1.484-4.061-3.15-8.661-3.223-6.406-.1-61.567 17.384-61.567 17.384s-26.016 4.383-29.205 3.855c-3.19-.533-4.128-2.66-4.128-4.789 0-2.122 1.972-4.627 6.755-5.155 4.784-.533 32.662-2.156 37.434-5.067 4.816-2.939 4.066-7.978 1.31-9.005-3.838-1.434-83.244-1.75-122.771-1-5.25.1-17.99-.178-35.023-.128 3.073 19.539 8.59 36.211 20.511 50.911 11.256-5.756 23.678-9.672 38.778-9.006 10.74.473 59.923 5.062 70.017 1.873M399.902 118.683h-10.017c-2.11-56.255-47.21-101.5-103.416-103.783V4.461c0-2.461-2-4.461-4.467-4.461a4.46 4.46 0 00-4.456 4.461V14.9c-56.21 2.283-101.31 47.528-103.422 103.783h-10.011a4.462 4.462 0 100 8.922h235.789c2.461 0 4.467-2 4.467-4.46a4.466 4.466 0 00-4.467-4.462M236.396 37.456c-6.86 8.71-23.339 32.944-24.589 66.389-.122 3.21-2.422 5.71-5.15 5.616h-10.233c-3.294-.11-5.667-4.189-4.772-7.928 3.255-13.633 13.539-43.36 44.017-65.083.566-.406 1.183.433.727 1.006" fill="#D60E63" fill-rule="nonzero"/>
</svg>