<svg width="26" height="21" xmlns="http://www.w3.org/2000/svg">
  <g fill="#22A2ED">
    <path d="M1.499 0h23.002q.074 0 .147.007t.145.022q.073.014.143.036.07.02.139.05.068.027.133.062t.126.076q.061.04.118.087.057.047.109.099.052.052.099.109.046.057.087.118.041.061.076.126.035.065.063.133.028.068.05.139.02.07.035.143.015.072.022.145.007.073.007.147v.002q0 .074-.007.147t-.022.145q-.014.073-.035.143-.022.07-.05.139-.028.068-.063.133t-.076.126q-.04.061-.087.118-.047.057-.099.109-.052.052-.109.099-.057.046-.118.087-.061.041-.126.076-.065.035-.133.063-.068.028-.139.05-.07.02-.143.035-.072.015-.145.022Q24.575 3 24.5 3H1.499q-.074 0-.147-.007t-.145-.022q-.073-.014-.143-.036-.07-.02-.139-.05-.068-.027-.133-.062t-.126-.076q-.061-.04-.118-.087-.057-.047-.109-.1Q.387 2.51.34 2.453q-.046-.057-.087-.118-.041-.061-.076-.126-.035-.065-.063-.133-.028-.068-.05-.139-.02-.07-.035-.143-.015-.072-.022-.145Q0 1.575 0 1.5v-.002q0-.074.007-.147t.022-.145q.014-.073.036-.143.02-.07.05-.139Q.141.857.176.792T.253.666Q.293.605.34.548.387.491.44.439.491.387.548.34.605.294.666.253.727.212.792.177.857.142.925.114q.068-.028.139-.05.07-.02.143-.035.072-.015.145-.022Q1.425 0 1.5 0zM1.499 9h23.002q.074 0 .147.007t.145.022q.073.014.143.036.07.02.139.05.068.027.133.062t.126.076q.061.04.118.087.057.047.109.099.052.052.099.109.046.057.087.118.041.061.076.126.035.065.063.133.028.068.05.139.02.07.035.143.015.072.022.145.007.073.007.147v.002q0 .074-.007.147t-.022.145q-.014.073-.035.143-.022.07-.05.139-.028.068-.063.133t-.076.126q-.04.061-.087.118-.047.057-.099.109-.052.052-.109.099-.057.046-.118.087-.061.041-.126.076-.065.035-.133.063-.068.028-.139.05-.07.02-.143.035-.072.015-.145.022-.073.007-.147.007H1.499q-.074 0-.147-.007t-.145-.022q-.073-.014-.143-.036-.07-.02-.139-.05-.068-.027-.133-.062t-.126-.076q-.061-.04-.118-.087-.057-.047-.109-.1-.052-.051-.099-.108-.046-.057-.087-.118-.041-.061-.076-.126-.035-.065-.063-.133-.028-.068-.05-.139-.02-.07-.035-.143-.015-.072-.022-.145Q0 10.575 0 10.5v-.002q0-.074.007-.147t.022-.145q.014-.073.036-.143.02-.07.05-.139.027-.068.062-.133t.076-.126q.04-.061.087-.118.047-.057.099-.109.052-.052.109-.099.057-.046.118-.087.061-.041.126-.076.065-.035.133-.063.068-.028.139-.05.07-.02.143-.035.072-.015.145-.022Q1.425 9 1.5 9zM1.499 18h23.002q.074 0 .147.007t.145.022q.073.014.143.036.07.02.139.05.068.027.133.062t.126.076q.061.04.118.087.057.047.109.099.052.052.099.109.046.057.087.118.041.061.076.126.035.065.063.133.028.068.05.139.02.07.035.143.015.072.022.145.007.073.007.147v.002q0 .074-.007.147t-.022.145q-.014.073-.035.143-.022.07-.05.139-.028.068-.063.133t-.076.126q-.04.061-.087.118-.047.057-.099.109-.052.052-.109.099-.057.046-.118.087-.061.041-.126.076-.065.035-.133.063-.068.028-.139.05-.07.02-.143.035-.072.015-.145.022-.073.007-.147.007H1.499q-.074 0-.147-.007t-.145-.022q-.073-.014-.143-.036-.07-.02-.139-.05-.068-.027-.133-.062t-.126-.076q-.061-.04-.118-.087-.057-.047-.109-.099-.052-.052-.099-.109-.046-.057-.087-.118-.041-.061-.076-.126-.035-.065-.063-.133-.028-.068-.05-.139-.02-.07-.035-.143-.015-.072-.022-.145Q0 19.575 0 19.5v-.002q0-.074.007-.147t.022-.145q.014-.073.036-.143.02-.07.05-.139.027-.068.062-.133t.076-.126q.04-.061.087-.118.047-.057.099-.109.052-.052.109-.099.057-.046.118-.087.061-.041.126-.076.065-.035.133-.063.068-.028.139-.05.07-.02.143-.035.072-.015.145-.022Q1.425 18 1.5 18z"/>
  </g>
</svg>
