<svg width="23" height="20" xmlns="http://www.w3.org/2000/svg">
  <path d="M23 5.851v1.834a.666.666 0 00-.041.126 6.855 6.855 0 01-.621 2.108 14.374 14.374 0 01-2.788 3.907c-2.33 2.415-5.011 4.374-7.866 6.116a.281.281 0 01-.342 0 41.534 41.534 0 01-6.44-4.725 20.025 20.025 0 01-3.687-4.301 7.749 7.749 0 01-1-5.979C1.259.31 7.041-1.58 10.643 1.52c.308.264.58.571.887.873a.953.953 0 01.063-.091c1.61-1.794 3.599-2.596 5.98-2.198 2.61.436 4.32 1.99 5.153 4.49.115.413.206.833.274 1.257z" fill="currentColor"/>
</svg>
