<svg viewBox="0 0 45 45" xmlns="http://www.w3.org/2000/svg" fill-rule="evenodd" clip-rule="evenodd" stroke-linejoin="round" stroke-miterlimit="2">
  <path d="M22.067 14.686a7.342 7.342 0 107.342 7.342 7.335 7.335 0 00-7.334-7.342h-.008z" fill="currentColor" fill-rule="nonzero"/>
  <path d="M33.82 12.915a2.642 2.642 0 11.002-5.285 2.642 2.642 0 01-.002 5.285M22.062 33.332c-6.246.008-11.317-5.05-11.325-11.292-.008-6.246 5.046-11.317 11.292-11.325 6.246-.008 11.316 5.046 11.325 11.292v.02c0 6.238-5.054 11.292-11.292 11.305m21.892-20.384C44.333 6.248 39.212.515 32.516.136a12.614 12.614 0 00-1.375 0c-4.037-.188-14.096-.18-18.154 0a13.157 13.157 0 00-9.25 3.567C-.501 7.94.02 13.653.02 22.028c0 8.57-.479 14.166 3.696 18.333 4.254 4.254 10.05 3.696 18.334 3.696 4.837.479 9.725.087 14.425-1.159a12.054 12.054 0 007.466-11.787c.204-4.063.192-14.104.013-18.163" fill="currentColor" fill-rule="nonzero"/>
</svg>
