<svg viewBox="0 0 45 45" xmlns="http://www.w3.org/2000/svg" fill-rule="evenodd" clip-rule="evenodd" stroke-linejoin="round" stroke-miterlimit="2">
  <path d="M35.002 33.333h-5.363v-8.641c0-2.171-.779-3.654-2.72-3.654A2.948 2.948 0 0024.168 23c-.138.425-.196.87-.176 1.313v9.02h-5.375s.071-14.641 0-16.158h5.371v2.288a5.341 5.341 0 014.842-2.667c3.533 0 6.183 2.308 6.183 7.27l-.012 9.267zM12.96 14.971h-.042a2.798 2.798 0 01-2.97-2.617 2.798 2.798 0 013.041-2.966 2.802 2.802 0 012.992 2.595 2.803 2.803 0 01-3.03 2.988h.009zm2.683 18.362h-5.366V17.18h5.366v16.154zM40.923 0H3.18A3.181 3.181 0 000 3.18v37.74a3.179 3.179 0 003.18 3.18h37.742c1.754 0 3.179-1.42 3.179-3.18V3.18A3.181 3.181 0 0040.922 0" fill="currentColor" fill-rule="nonzero"/>
</svg>
