<?xml version="1.0" encoding="UTF-8" standalone="no"?>
<svg width="60px" height="60px" viewBox="0 0 60 60" version="1.1" xmlns="http://www.w3.org/2000/svg" xmlns:xlink="http://www.w3.org/1999/xlink">
    <!-- Generator: sketchtool 41.2 (35397) - http://www.bohemiancoding.com/sketch -->
    <title>F6E9FE43-CB26-4F7B-8F07-AF163115D281</title>
    <desc>Created with sketchtool.</desc>
    <defs>
        <path d="M30,0 C13.7390477,0 0,13.7390477 0,30 C0,46.2609523 13.7390477,60 30,60 C46.2609523,60 60,46.2609523 60,30 C60,13.7390477 46.2609523,0 30,0 L30,0 L30,0 Z" id="path-1"></path>
        <mask id="mask-2" maskContentUnits="userSpaceOnUse" maskUnits="objectBoundingBox" x="0" y="0" width="60" height="60" fill="red">
            <use xlink:href="#path-1"></use>
        </mask>
    </defs>
    <g id="Symbols" stroke="none" stroke-width="1" fill="none" fill-rule="evenodd">
        <g id="icons/ic_check">
            <g id="ic_check">
                <path d="M25.3647619,37.9914286 L17.4257143,30.052381 C16.867619,29.4942857 15.9638095,29.4942857 15.4057143,30.052381 C14.847619,30.6104762 14.847619,31.5142857 15.4057143,32.0723809 L24.3561904,41.0228572 C24.6238095,41.2904762 24.9885714,41.44 25.3647619,41.44 C25.7438095,41.44 26.1047619,41.2904762 26.3723809,41.0228572 L45.3047619,22.0904762 C45.8628571,21.532381 45.8628571,20.6285714 45.3047619,20.0704762 C44.7466666,19.5123809 43.8466666,19.5123809 43.2885714,20.0704762 L25.3647619,37.9914286 Z" id="Shape" fill="#000"></path>
                <use id="Path" stroke="#000" mask="url(#mask-2)" stroke-width="6" xlink:href="#path-1"></use>
            </g>
        </g>
    </g>
</svg>