<svg viewBox="0 0 142 142" xmlns="http://www.w3.org/2000/svg" fill-rule="evenodd" clip-rule="evenodd" stroke-linejoin="round" stroke-miterlimit="2">
  <path d="M84.62 84.64c-16.145 16.137-42.312 16.128-58.445-.013-16.138-16.146-16.13-42.313.012-58.45 16.138-16.13 42.296-16.13 58.434 0 16.116 16.154 16.116 42.308 0 58.462m9.937-68.375c-21.592-21.646-56.646-21.692-78.292-.1C-5.388 37.756-5.43 72.81 16.162 94.456c18.946 19 48.788 21.675 70.809 6.354a11.79 11.79 0 003.179 5.87l31.412 31.434c4.613 4.521 12.017 4.45 16.538-.162 4.458-4.546 4.462-11.825.004-16.375l-31.417-31.434a11.658 11.658 0 00-5.866-3.154c15.275-21.987 12.645-51.754-6.25-70.725h-.013z" fill="currentColor" fill-rule="nonzero"/>
</svg>
