<svg viewBox="0 0 300 68" xmlns="http://www.w3.org/2000/svg" fill-rule="evenodd" clip-rule="evenodd" stroke-linejoin="round" stroke-miterlimit="2">
  <path d="M117.327 3.182c.212-.424 0-1.06-.212-1.485-.425-.424-.85-.636-1.486-.636h-14.851L82.532 62.8 75.53 32.885 96.747 4.031c.212-.212.212-.424.212-.636l.636-1.486c.213-.424-.212-.848-.424-.848H81.895L65.771 24.823l7.001-21.428c.212-.849-.212-1.91-1.273-2.122H56.223L43.281 45.191c.213-7.638-5.516-13.366-8.91-17.185-2.759-2.97-4.456-5.304-4.032-7.638.425-3.395 3.183-5.94 6.578-5.94 3.818-.213 5.304.848 7.637 1.909.213.212.637.212.85.212.211 0 .423 0 .636-.212.212-.637.636-1.061.848-1.486l3.395-11.669-2.334-1.06-.424-.213h-.212C44.554.636 41.372 0 38.402 0 25.248 0 13.366 9.335 11.457 20.792c-1.273 8.062 3.819 13.79 7.638 17.822l.424.424c2.758 2.97 4.668 5.092 4.243 7.85-.636 3.607-4.243 5.729-7.638 6.153-3.818.212-6.152-.849-9.123-2.122-.424-.212-1.06-.424-1.697-.212a1.913 1.913 0 00-1.273 1.273L.636 63.225 0 64.498s6.577 3.394 14.003 3.394c11.245 0 20.792-4.243 26.52-14.639L37.13 64.71c-.212.424 0 1.06.212 1.485.424.424.849.637 1.485.637h14.851l3.82-12.73 4.455-6.577 3.395 17.822c.212.848.848 1.485 1.697 1.485h31.4l18.883-63.65zm39.887 2.759c-2.97-3.183-7.002-5.092-11.457-4.88h-24.611l-1.061 3.394c0 .425 0 .637.212 1.061l.636 1.061c.637 1.06.85 2.334.425 3.607L105.233 64.71c-.212.849.213 1.91 1.061 2.122h14.852l4.455-15.276h6.577c15.7.212 23.55-10.82 27.157-22.702 1.485-4.88 2.122-8.486 2.122-10.82 0-4.88-1.273-8.699-4.243-12.093zm-11.882 14.002c-.212 3.183-1.273 7.002-2.758 10.184-1.91 4.031-3.607 7.214-8.486 7.638h-4.244l6.577-22.49h5.517c.848 0 1.485.213 2.121.85 1.061.848 1.273 2.121 1.273 3.818zm32.674 8.7h-9.76l-11.032 37.34c-.213.424.212.849.636 1.06h9.335c14.64 0 19.731-18.245 20.156-25.883.424-8.487-4.243-12.518-9.335-12.518zm1.697 12.517c-.212 4.667-3.819 19.307-10.82 19.307h-2.334l7.425-25.672h2.122c2.122.212 3.82 1.91 3.607 6.365zm18.883-38.614c0-.212 0-.637-.425-.637h-3.819l-2.334 8.7h-4.243l2.334-8.063c0-.212 0-.637-.424-.637h-3.82l-6.152 20.793c0 .212 0 .636.424.636h3.82l2.757-9.335h4.244l-2.546 8.699c0 .212 0 .636.424.636h3.819l5.94-20.792zm12.517-.637h-9.123v.425l-5.94 20.58c0 .212 0 .636.424.636h9.335l.849-2.97c0-.212 0-.424-.212-.637h-5.092l1.697-5.516h4.455l.425-3.182c0-.212 0-.637-.425-.637h-3.819l1.486-5.092h5.516l.849-2.97c.212-.424 0-.637-.425-.637zm-28.43 3.395l.849-2.97c0-.212 0-.637-.424-.637h-10.609l-.636 2.97c0 .213 0 .637.424.637h2.97l-5.091 17.398c0 .212 0 .636.424.636h3.394l5.305-18.034h3.394zm20.156 23.338h-6.365L185.43 65.983c-.212.424 0 .849.637 1.06h6.577l11.032-37.34c.213-.424-.212-.849-.848-1.06zm52.192 1.061c.212-.424 0-.849-.424-1.06h-6.577l-4.456 15.487h-7.638l4.244-14.427c.212-.424 0-.849-.637-1.06h-6.577l-11.032 37.34c-.213.424 0 .849.636 1.06h6.577l4.88-16.548h7.638l-4.456 15.488c-.212.424 0 .849.425 1.06h6.577l10.82-37.34zm22.277-1.06h-16.336l-11.033 37.34c-.212.424 0 .849.637 1.06h16.548l1.486-5.303c.212-.425 0-.849-.637-1.061h-8.91l2.97-9.972h7.637l1.698-5.304c.212-.424 0-.849-.637-1.06h-7.001l2.758-9.336h9.76l1.485-5.304c.212-.424 0-.849-.425-1.06zM213.65 39.037c.424-2.546 2.546-4.455 5.092-4.667 1.485 0 2.97.212 4.243.848.637.212 1.273 0 1.698-.636v-.212l1.485-5.092c-1.91-.849-4.031-1.273-6.365-1.273-6.79 0-13.579 5.092-14.64 11.88-.636 4.668 2.122 7.85 4.244 10.397 1.697 1.91 2.97 3.607 2.758 5.728-.636 3.183-2.97 4.668-5.516 4.88-1.91.212-2.97 0-5.092-.849-.637-.212-1.273-.212-1.485.425 0 0 0 .212-.213.212l-1.697 5.728c2.334.849 4.88 1.273 7.426 1.273 7.426 0 13.79-5.516 15.064-12.517.636-4.668-2.122-8.063-4.244-10.609-1.697-1.909-3.182-3.606-2.758-5.516zm73.833 0c.425-2.546 2.546-4.455 5.092-4.667 1.485 0 2.97.212 4.243.848.637.212 1.273 0 1.698-.636v-.212L300 29.279c-1.91-.849-4.031-1.273-6.365-1.273-6.79 0-13.579 5.092-14.64 11.88-.636 4.668 2.122 7.85 4.244 10.397 1.697 1.91 2.97 3.607 2.758 5.728-.636 3.183-2.97 4.668-5.516 4.88-1.91.212-2.97 0-5.092-.849-.637-.212-1.273-.212-1.485.425 0 0 0 .212-.212.212l-1.698 5.728c2.334.849 4.88 1.273 7.426 1.273 7.426 0 13.79-5.516 15.064-12.517.636-4.668-2.122-8.063-4.244-10.609-1.697-1.909-2.97-3.606-2.758-5.516z" fill="#e91431" fill-rule="nonzero"/>
</svg>
