<svg viewBox="0 0 54 45" xmlns="http://www.w3.org/2000/svg" fill-rule="evenodd" clip-rule="evenodd" stroke-linejoin="round" stroke-miterlimit="2">
  <path d="M20.106 44.104a46.062 46.062 0 01-7.142-.567 33.424 33.424 0 01-9.77-3.554L.002 38.237l3.458-1.15c3.78-1.25 6.08-2.012 8.921-3.22a11.865 11.865 0 01-6.1-7.084l-.804-2.441.658.1a11.913 11.913 0 01-1.504-1.85 11.398 11.398 0 01-1.93-6.734l.15-2.129 1.276.496a11.919 11.919 0 01-1.154-3.238 12.358 12.358 0 011.316-8.304L5.42.646l1.487 1.783a27.345 27.345 0 0017.68 9.975c-.3-1.9-.08-3.846.64-5.63.88-2.05 2.388-3.77 4.31-4.912 2.245-1.358 4.853-2 7.47-1.837a11.926 11.926 0 017.338 3.025 24.122 24.122 0 002.683-.896c.587-.22 1.25-.475 2.083-.762L52.19.329 50.18 6.062l.417-.025 3.287-.15-1.941 2.655c-.113.15-.142.195-.18.254-.158.237-.35.529-3.016 4.091a5.017 5.017 0 00-.938 3.271c.296 4.221-.279 8.459-1.687 12.446a21.983 21.983 0 01-5.913 8.75 26.083 26.083 0 01-12.375 5.983c-2.541.517-5.133.771-7.729.759v.008z" fill="currentColor" fill-rule="nonzero"/>
</svg>
