<svg viewBox="0 0 66 47" xmlns="http://www.w3.org/2000/svg" fill-rule="evenodd" clip-rule="evenodd" stroke-linejoin="round" stroke-miterlimit="2">
  <path d="M26.306 32.866v-19.7l17.084 9.85-17.084 9.85zm38.046-25.65a8.235 8.235 0 00-5.791-5.791A192.078 192.078 0 0032.852.016c-8.587-.104-17.175.35-25.708 1.355a8.402 8.402 0 00-5.792 5.833 87.08 87.08 0 00-1.35 15.812 86.654 86.654 0 001.354 15.805 8.242 8.242 0 005.792 5.791 192.773 192.773 0 0025.708 1.409c8.592.1 17.176-.35 25.709-1.355a8.242 8.242 0 005.792-5.791A86.654 86.654 0 0065.71 23.07a82.275 82.275 0 00-1.354-15.859l-.005.004z" fill="currentColor" fill-rule="nonzero"/>
</svg>
