<svg width="150" height="150" xmlns="http://www.w3.org/2000/svg"><g fill="none" fill-rule="evenodd"><path d="M82.115 142.677c19.332-2.031 36.505-12.08 47.776-27.45a3.729 3.729 0 00-6.014-4.41c-10.04 13.691-25.322 22.634-42.541 24.443a3.729 3.729 0 00.78 7.417zm55.179-40.25c4.748-10.759 6.643-22.592 5.387-34.542a68.001 68.001 0 00-5.49-20.562 3.729 3.729 0 10-6.814 3.03 60.544 60.544 0 014.887 18.311c1.12 10.648-.567 21.175-4.793 30.751a3.729 3.729 0 006.823 3.012zm-7.542-67.863c-11.37-15.367-28.758-25.362-47.88-27.284a3.729 3.729 0 00-.745 7.42c17.016 1.71 32.503 10.613 42.63 24.3a3.729 3.729 0 105.995-4.436zM67.121 7.404c-19.293 2.245-36.362 12.49-47.462 27.991a3.729 3.729 0 106.063 4.342c9.889-13.808 25.079-22.926 42.26-24.926a3.729 3.729 0 00-.861-7.407zM12.4 48.282c-4.523 10.571-6.307 22.145-5.079 33.83a67.976 67.976 0 005.81 21.27 3.729 3.729 0 106.779-3.11 60.518 60.518 0 01-5.172-18.94c-1.094-10.411.493-20.708 4.518-30.117a3.729 3.729 0 00-6.857-2.933zm8.32 67.776c11.546 15.236 29.04 25.032 48.193 26.732a3.729 3.729 0 00.66-7.429c-17.044-1.513-32.626-10.237-42.91-23.807a3.729 3.729 0 10-5.943 4.504z" fill="#E8E8E8" fill-rule="nonzero"/><path d="M82.115 142.677c19.332-2.031 36.505-12.08 47.776-27.45a3.729 3.729 0 00-6.014-4.41c-10.04 13.691-25.322 22.634-42.541 24.443a3.729 3.729 0 00.78 7.417zm55.179-40.25c4.748-10.759 6.643-22.592 5.387-34.542a68.001 68.001 0 00-5.49-20.562 3.729 3.729 0 00-6.814 3.03 60.544 60.544 0 014.887 18.311c1.12 10.648-.567 21.175-4.793 30.751a3.729 3.729 0 006.823 3.012zm-7.542-67.863c-11.37-15.367-28.758-25.362-47.88-27.284a3.729 3.729 0 00-.745 7.42c17.016 1.71 32.503 10.613 42.63 24.3a3.729 3.729 0 105.995-4.436z" fill="#4DB856" fill-rule="nonzero"/><path d="M94.243 51.306c-1.14 13.232-4.44 51.432-4.777 54.198-.118.97-.885 1.719-1.902 1.723-1.77.007-24.376.007-26.146 0-1.016-.004-1.783-.753-1.901-1.723-.337-2.766-3.48-40.966-4.564-54.198h-.994a1.257 1.257 0 01-1.256-1.257v-4.198c0-.694.562-1.256 1.256-1.256h41.064c.694 0 1.257.562 1.257 1.256v4.198c0 .694-.563 1.257-1.257 1.257h-.78z" fill-opacity=".2" fill="#E8E8E8"/><path d="M57.074 76.284s2.354 28.415 2.446 29.17c.118.97.885 1.719 1.901 1.723 1.77.007 24.377.007 26.147 0 1.016-.004 1.783-.753 1.901-1.723.092-.753 2.776-29.17 2.776-29.17H57.074z" fill="#4DB856"/><path d="M94.243 51.306c-1.14 13.232-4.44 51.432-4.777 54.198-.118.97-.885 1.719-1.902 1.723-1.77.007-24.376.007-26.146 0-1.016-.004-1.783-.753-1.901-1.723-.337-2.766-3.48-40.966-4.564-54.198h-.994 0a1.257 1.257 0 01-1.256-1.257v-4.198h0c0-.694.562-1.256 1.256-1.256h41.064c.694 0 1.257.562 1.257 1.256v4.198h0c0 .694-.563 1.257-1.257 1.257h-.78z" stroke="#E8E8E8" stroke-width="2.624"/></g></svg>