<svg viewBox="0 0 33 71" xmlns="http://www.w3.org/2000/svg" fill-rule="evenodd" clip-rule="evenodd" stroke-linejoin="round" stroke-miterlimit="2">
  <path d="M32.279 16.584c-.41-.53-.97-.9-1.59-1.09l-.03-.13c-.17-.58-.44-1.14-.79-1.63-.24-.31-.54-.57-.88-.78-.08-.03-.16-.08-.23-.12.02-.17.04-.33.04-.5-.01-.4-.07-.81-.18-1.19-.19-.6-.56-1.12-1.05-1.51a4.74 4.74 0 00-1.8-.74c-.02-.69-.29-1.34-.75-1.85-.51-.49-1.15-.83-1.84-.99-.41-.05-.81-.14-1.2-.27-.11-.37-.3-.7-.57-.98a6.485 6.485 0 00-2.36-1.42c-.5-.45-.97-.93-1.4-1.45a3.41 3.41 0 00-1.53-.93c-.57-.15-.72.15-.72.33.01.16.04.32.08.47.06.23.03.47-.08.68-.23.43-.67 1.12-1.2 1.24-.73.25-1.33.78-1.67 1.47-1 .07-1.98.33-2.87.78-.67.35-1.2.94-1.47 1.65 0 0-2.72-6.97-2.87-7.33-.15-.36-.72-.39-1.44-.09-.4.14-.67.51-.69.93l1.93 4.49s1.09 2.87 1.45 3.55c-.68.41-1.2 1.03-1.48 1.78a5.46 5.46 0 00-.23 2.63c.01.04-.01.08-.04.11-.09.1-.19.19-.3.26-.52.34-.98.75-1.41 1.2-.37.07-.73.16-1.08.28-1.02.34-1.83.75-2 1.45-.16.66.35 1.44 1.41 1.85l6.07 48.96c.4.52.9.95 1.48 1.26.76.32 2.53 1.34 7.41 1.34 2.61.1 5.21-.45 7.56-1.61 0 0 .97-.54 1.1-1.29.12-.7 5.22-43.18 5.88-48.65 2.27-.92 1.34-2.16 1.34-2.16zm-29.43 1.25c-.02-.01-.04-.01-.07-.01-.2-.06-.36-.13-.48-.19.17.06.35.13.55.2zm27.44-.25l-.21.06c.24-.12.47-.25.7-.4.35-.2.23-.48.23-.48v-.01l.02.01s.31.31-.74.82z" fill="#2894d4" fill-rule="nonzero"/>
</svg>
