<svg xmlns="http://www.w3.org/2000/svg" viewBox="0 0 30 27">
  <path d="M6.064 22.905v2.741c0 .73-.568 1.285-1.312 1.285-.745 0-1.312-.59-1.312-1.285v-2.741C1.454 22.35 0 20.58 0 18.497c0-2.082 1.454-3.852 3.44-4.407V1.284C3.44.555 4.007 0 4.752 0c.744 0 1.312.59 1.312 1.284V14.09c1.986.555 3.44 2.325 3.44 4.407 0 2.083-1.454 3.853-3.44 4.408zM24.258 1.287v12.84c-1.881.556-3.258 2.33-3.258 4.418s1.377 3.862 3.258 4.419v2.749c0 .695.537 1.287 1.242 1.287s1.242-.557 1.242-1.287v-2.75c1.881-.556 3.258-2.33 3.258-4.418s-1.377-3.862-3.258-4.419V1.287C26.742.591 26.206 0 25.5 0s-1.242.557-1.242 1.287zM13.936 3.991V1.353c0-.728.603-1.284 1.312-1.249.745 0 1.312.59 1.312 1.284v2.638C18.546 4.58 20 6.35 20 8.433s-1.454 3.852-3.44 4.408v12.875c0 .729-.603 1.284-1.312 1.284-.744 0-1.312-.59-1.312-1.284v-12.91c-1.986-.555-3.44-2.325-3.44-4.408 0-2.082 1.454-3.852 3.44-4.407zm1.312 6.49c1.206 0 2.128-.972 2.128-2.083 0-1.11-.922-2.082-2.128-2.082-1.205 0-2.127.903-2.127 2.082 0 1.18.922 2.083 2.127 2.083zM4.752 16.415c-1.206 0-2.128.972-2.128 2.082 0 1.111.993 2.083 2.128 2.083 1.135 0 2.127-.903 2.127-2.083 0-1.18-.922-2.082-2.127-2.082zm22.763 2.13c0 1.113-.873 2.088-2.015 2.088-1.142 0-2.015-.905-2.015-2.088s.873-2.088 2.015-2.088c1.142 0 2.015.975 2.015 2.088z" fill="currentColor" fill-rule="evenodd"/>
</svg>
