<svg viewBox="0 0 121 121" xmlns="http://www.w3.org/2000/svg" fill-rule="evenodd" clip-rule="evenodd" stroke-linejoin="round" stroke-miterlimit="2">
  <path d="M121 60.5C121 27.009 93.991 0 60.5 0S0 27.009 0 60.5 27.009 121 60.5 121 121 93.991 121 60.5zm-112 0C9 32.049 32.049 9 60.5 9S112 32.049 112 60.5 88.951 112 60.5 112 9 88.951 9 60.5zm79.814-3.632L51.287 35.652C48.008 33.854 44 36.011 44 39.248v43.15c0 3.596 4.008 5.754 7.287 3.956l37.527-21.576c2.915-1.797 2.915-6.113 0-7.91z" fill="#fff"/>
</svg>
