<svg viewBox="0 0 166 129" xmlns="http://www.w3.org/2000/svg" fill-rule="evenodd" clip-rule="evenodd" stroke-linejoin="round" stroke-miterlimit="2">
  <path d="M75.596 95.305c0-19.25-11.916-31.625-32.541-31.625-4.125 0-7.334.917-9.625 2.292.916-21.084 20.166-35.292 37.583-38.042V-.028C42.138 2.722-.03 23.347-.03 84.763c0 24.292 15.584 44 39.875 44 21.542 0 35.75-15.583 35.75-33.458zm90.292 0c0-19.25-11.917-31.625-32.542-31.625-4.125 0-7.333.917-9.625 2.292.917-21.084 20.167-35.292 37.584-38.042V-.028c-28.875 2.75-71.042 23.375-71.042 84.791 0 24.292 15.583 44 39.875 44 21.542 0 35.75-15.583 35.75-33.458z" fill-rule="nonzero" fill="currentColor"/>
</svg>
