<?xml version="1.0" encoding="UTF-8"?>
<svg width="107px" height="31px" viewBox="0 0 107 31" version="1.1" xmlns="http://www.w3.org/2000/svg" xmlns:xlink="http://www.w3.org/1999/xlink">
    <!-- Generator: Sketch 63.1 (92452) - https://sketch.com -->
    <title>Artboard</title>
    <desc>Created with Sketch.</desc>
    <defs>
        <polygon id="path-1" points="0 30.7992243 106.880854 30.7992243 106.880854 0 0 0"></polygon>
    </defs>
    <g id="Artboard" stroke="none" stroke-width="1" fill="none" fill-rule="evenodd">
        <g id="Logo/Coloured">
            <g id="Group-17">
                <g id="Group-16">
                    <path d="M77.8789378,25.9446243 C74.2490351,25.9446243 71.2961243,22.9868766 71.2961243,19.3506056 C71.2961243,15.7140449 74.2490351,12.7562972 77.8789378,12.7562972 C81.5085514,12.7562972 84.4617514,15.7140449 84.4617514,19.3506056 C84.4617514,22.9868766 81.5085514,25.9446243 77.8789378,25.9446243 M86.7755541,12.5491477 C84.7260703,9.86489533 81.5053703,8.1225215 77.8789378,8.1225215 C71.6986757,8.1225215 66.6705432,13.1592972 66.6705432,19.3506056 C66.6705432,25.541914 71.6986757,30.5784 77.8789378,30.5784 C81.5053703,30.5784 84.7260703,28.8363159 86.7755541,26.1517738 C85.3322108,24.261643 84.4646432,21.9085402 84.4646432,19.3506056 C84.4646432,16.792671 85.3322108,14.4392785 86.7755541,12.5491477" id="Fill-1" fill="#AED744"></path>
                    <path d="M95.6726619,25.9446243 C92.0427592,25.9446243 89.0898484,22.9868766 89.0898484,19.3506056 C89.0898484,15.7140449 92.0427592,12.7562972 95.6726619,12.7562972 C99.3025646,12.7562972 102.255475,15.7140449 102.255475,19.3506056 C102.255475,22.9868766 99.3025646,25.9446243 95.6726619,25.9446243 M95.6726619,8.1225215 C92.0459403,8.1225215 88.8255295,9.86489533 86.7754673,12.5491477 C88.2188105,14.4392785 89.0869565,16.792671 89.0869565,19.3506056 C89.0869565,21.9085402 88.2188105,24.261643 86.7754673,26.1517738 C88.8255295,28.8363159 92.0459403,30.5784 95.6726619,30.5784 C101.852635,30.5784 106.880767,25.541914 106.880767,19.3506056 C106.880767,13.1592972 101.852635,8.1225215 95.6726619,8.1225215" id="Fill-3" fill="#AED644"></path>
                    <path d="M86.775583,12.5491766 C85.3322397,14.4393075 84.4646722,16.7924103 84.4646722,19.3506346 C84.4646722,21.9085692 85.3322397,24.261672 86.775583,26.1518028 C88.2189262,24.261672 89.0870722,21.9085692 89.0870722,19.3506346 C89.0870722,16.7924103 88.2189262,14.4393075 86.775583,12.5491766" id="Fill-5" fill="#1BA5EA"></path>
                    <path d="M50.2674432,8.34357757 L45.6392595,8.34357757 L45.6404162,18.9968579 C45.5334162,21.4481757 45.0524946,23.6341103 43.3052135,24.9981103 C42.387327,25.7145869 41.2083027,26.1312037 40.088273,26.1509047 C38.9691108,26.1329421 37.7961595,25.7128486 36.8802973,24.9981103 C35.1463189,23.6445402 34.6581676,21.4247084 34.5462514,18.9968579 L34.5448054,8.34357757 L29.9174892,8.34357757 L29.9192243,18.9968579 C30.0479135,22.4723346 30.7856351,26.1138206 34.0364108,28.6526336 C35.6714865,29.9302972 37.7394784,30.6853065 39.7909865,30.7812037 L39.7909865,30.7991664 L39.9555351,30.7991664 C40.0006486,30.7991664 40.0466297,30.7939514 40.0926108,30.7939514 C40.1388811,30.7939514 40.1848622,30.7991664 40.2299757,30.7991664 L40.3945243,30.7991664 L40.3945243,30.7812037 C42.4460324,30.6853065 44.5137351,29.9302972 46.1488108,28.6526336 C49.4426757,26.0802131 50.1540811,22.5128953 50.2688892,18.9968579 L50.2674432,8.34357757 Z" id="Fill-7" fill="#1BA5EA"></path>
                    <polygon id="Fill-9" fill="#1BA5EA" points="28.0454808 0.0311158879 0.000202432432 0.0311158879 0.000202432432 4.66489159 9.20943216 4.66489159 9.20943216 30.3670785 13.8347241 30.3670785 13.8347241 4.66489159 28.0454808 4.66489159"></polygon>
                    <mask id="mask-2" fill="white">
                        <use xlink:href="#path-1"></use>
                    </mask>
                    <g id="Clip-12"></g>
                    <polygon id="Fill-11" fill="#1BA5EA" mask="url(#mask-2)" points="52.8608919 30.3359626 57.4861838 30.3359626 57.4861838 0 52.8608919 0"></polygon>
                    <path d="M22.6504251,30.3663832 L18.0147224,30.3663832 C18.0147224,30.3663832 18.0190603,21.8164673 18.0147224,19.7452617 C17.9933224,9.67373832 19.7449414,8.40215888 27.6051035,8.40215888 L28.0226927,8.40215888 L28.0226927,13.2604673 L27.6051035,13.2604673 C25.5961062,13.2604673 24.1082278,13.0596916 23.1541927,15.2036168 C22.8528576,15.8804019 22.7114441,17.7644486 22.6504251,19.9842804 C22.5859359,22.3249252 22.6504251,30.3663832 22.6504251,30.3663832" id="Fill-13" fill="#1BA5EA" mask="url(#mask-2)"></path>
                    <polygon id="Fill-14" fill="#1BA5EA" mask="url(#mask-2)" points="60.3832811 30.3359626 65.008573 30.3359626 65.008573 8.36536449 60.3832811 8.36536449"></polygon>
                    <polygon id="Fill-15" fill="#1BA5EA" mask="url(#mask-2)" points="60.3832811 6.21245794 65.008573 6.21245794 65.008573 2.27227103 60.3832811 2.27227103"></polygon>
                </g>
            </g>
        </g>
    </g>
</svg>