<svg version="1.1" id="Layer_1" xmlns="http://www.w3.org/2000/svg" x="0" y="0" viewBox="0 0 430 62" xml:space="preserve">
  <style>
    .st5{fill:#008458}.st8{fill:#48ac5b}.st15{fill:#49ad5a}
  </style>
  <g id="_x32_.0-CA-Desktop-Join-Now">
    <g id="_x32_.0---CA-Desktop---Join-Now" transform="translate(-505 -153)">
      <g id="Logo_1_" transform="translate(459 153)">
        <g id="_x37_rewards_x5F_logo_1_" transform="translate(46)">
          <g id="Layer_1_2_">
            <g id="_x31_.1-CA-WEB---Desktop-Signed-In">
              <g id="_x31_.1-CA-WEB-Desktop-Signed-In-Copy">
                <g id="Logo">
                  <g id="_x37_rewards_x5F_logo">
                    <g id="Layer_1_1_">
                      <linearGradient id="Shape_21_" gradientUnits="userSpaceOnUse" x1="-277.16" y1="518.398" x2="-276.965" y2="518.22" gradientTransform="matrix(43.5 0 0 -35.3 12445.9 18337.701)">
                        <stop offset="0" stop-color="#00351b" stop-opacity=".972"/>
                        <stop offset="1" stop-color="#008358"/>
                      </linearGradient>
                      <path id="Shape_23_" d="M413.4 30.7c-1.7-1.3-3.7-2.3-5.8-3.1-1.5-.5-2.9-1-4.3-1.5l-9.1 10.1c-.2-.1 2.8.9 4.2 1.4 1.5.5 2.7 1 3.8 1.7 1 .6 1.7 1.3 2.4 2.1.5.8.8 1.6.8 2.8 0 1.1-.2 2.1-.6 2.8-.4.8-1 1.5-1.7 1.9-.7.5-1.6.9-2.5 1-1 .2-2 .3-3 .3-2.3 0-4.5-.6-6.9-1.7-2.3-1.1-4.2-2.6-5.6-4.3l-9.2 9c2.5 2.6 5.8 4.6 9.6 6 3.8 1.4 7.8 2.2 11.9 2.2 2.8 0 5.5-.3 8.2-1.1 2.6-.8 5-1.9 7.1-3.4 2.1-1.5 3.7-3.5 4.9-5.9 1.2-2.4 1.8-5.2 1.8-8.4 0-2.8-.6-5.2-1.7-7.1-1.1-1.9-2.6-3.6-4.3-4.8z" fill="url(#Shape_21_)"/>
                      <linearGradient id="Shape_22_" gradientUnits="userSpaceOnUse" x1="-277.305" y1="523.367" x2="-276.929" y2="523.392" gradientTransform="matrix(42.3 0 0 -57.9 11957.196 30337.602)">
                        <stop offset="0" stop-color="#00351b" stop-opacity=".972"/>
                        <stop offset=".526" stop-color="#005e3d" stop-opacity=".987"/>
                        <stop offset="1" stop-color="#008358"/>
                      </linearGradient>
                      <path id="Shape" fill="url(#Shape_22_)" d="M246.9 2.8l-7 17.2 7.5 18.2h-14.9L228 49.5h23.9l4.5 11.2h13.9z"/>
                      <linearGradient id="Shape_25_" gradientUnits="userSpaceOnUse" x1="-274.221" y1="513.193" x2="-273.773" y2="512.563" gradientTransform="matrix(29.2 0 0 -24.8 8074.3 12761.5)">
                        <stop offset="0" stop-color="#00351b" stop-opacity=".972"/>
                        <stop offset=".526" stop-color="#005e3d" stop-opacity=".987"/>
                        <stop offset="1" stop-color="#008358"/>
                      </linearGradient>
                      <path id="Shape_1_" d="M89.7 52.5l-4.3-6.9-6-9.7c-2.1.6-6.9 1.7-13.6 1.8h-.3l12.6 23h16.6l-5-8.2z" fill="url(#Shape_25_)"/>
                      <linearGradient id="Shape_26_" gradientUnits="userSpaceOnUse" x1="-276.616" y1="522.974" x2="-276.267" y2="523.634" gradientTransform="matrix(39.9 0 0 -57.9 11232.698 30337.602)">
                        <stop offset="0" stop-color="#00351b" stop-opacity=".972"/>
                        <stop offset=".526" stop-color="#005e3d" stop-opacity=".987"/>
                        <stop offset="1" stop-color="#008358"/>
                      </linearGradient>
                      <path id="Shape_2_" fill="url(#Shape_26_)" d="M225 2.8l-23.3 57.9h-16.6l23.4-57.8z"/>
                      <linearGradient id="Shape_27_" gradientUnits="userSpaceOnUse" x1="-278.571" y1="523.403" x2="-278.17" y2="523.403" gradientTransform="matrix(54 0 0 -57.8 15375.4 30284.5)">
                        <stop offset="0" stop-color="#00351b" stop-opacity=".972"/>
                        <stop offset=".526" stop-color="#005e3d" stop-opacity=".987"/>
                        <stop offset="1" stop-color="#008358"/>
                      </linearGradient>
                      <path id="Shape_3_" d="M374.5 44.9c-1.9 3.7-4.4 6.7-7.6 9.1-3.1 2.4-6.5 4.3-10.5 5.4-3.9 1.1-8.1 1.3-12.1 1.3h-20.9V2.9h20.3c4.2 0 8.3.3 12.3 1.3 4 .9 7.7 2.6 10.8 4.7 3.1 2.2 5.8 5.2 7.7 9 1.9 3.7 2.9 8.3 2.9 13.8 0 5.1-1 9.5-2.9 13.2zm-11.9-13.2c0-3.3-.5-6-1.7-8.2-1-2.2-2.5-3.9-4.4-5.2-1.8-1.3-3.8-2.2-6.2-2.8-2.3-.5-4.7-.9-7.2-.9H336v34h6.7c2.5 0 5-.3 7.4-.9 2.4-.6 4.4-1.5 6.3-2.8 1.8-1.3 3.2-3.1 4.4-5.3 1.2-2.2 1.8-4.7 1.8-7.9z" fill="url(#Shape_27_)"/>
                      <path id="Shape_4_" class="st5" d="M397.6 50.2c-2.3 0-4.5-.6-6.9-1.7-2.3-1.1-4.2-2.6-5.6-4.3l-9.2 9c2.5 2.6 5.8 4.6 9.6 6 3.8 1.4 7.8 2.2 11.9 2.2"/>
                      <linearGradient id="Shape_28_" gradientUnits="userSpaceOnUse" x1="-274.802" y1="523.753" x2="-274.61" y2="523.223" gradientTransform="matrix(32.2 0 0 -57.9 9030.299 30337.602)">
                        <stop offset="0" stop-color="#125929" stop-opacity=".972"/>
                        <stop offset=".572" stop-color="#348846" stop-opacity=".988"/>
                        <stop offset="1" stop-color="#49ad5a"/>
                      </linearGradient>
                      <path id="Shape_5_" fill="url(#Shape_28_)" d="M201.7 60.7L186 2.8h-16.5L185 60.7z"/>
                      <linearGradient id="Shape_29_" gradientUnits="userSpaceOnUse" x1="-275.331" y1="518.205" x2="-274.925" y2="518.205" gradientTransform="matrix(32.7 0 0 -35.2 9061.799 18261.4)">
                        <stop offset="0" stop-color="#00351b" stop-opacity=".972"/>
                        <stop offset=".526" stop-color="#005e3d" stop-opacity=".987"/>
                        <stop offset="1" stop-color="#008358"/>
                      </linearGradient>
                      <path id="Shape_6_" d="M89.8 12.2c-1.3-2.2-3-4-5.1-5.4-2.1-1.4-4.5-2.3-7.2-2.9-2.7-.7-5.4-.9-8.2-.9H59v11.4h9.3c1 0 2.2.1 3.3.3s2.1.4 3 .9c1 .4 1.7 1.1 2.3 2s.9 2 .9 3.3c0 1.5-.3 2.7-1 3.6-.7.9-1.5 1.6-2.4 2.2-.9.6-2.1.9-3.3 1-1.2.2-2.4.3-3.6.3h-8.4v10.2H66c6.7-.1 11.5-1.2 13.6-1.8 3.8-1.1 6.8-3 8.9-5.7 2.2-2.7 3.2-5.9 3.2-9.9 0-3.6-.6-6.4-1.9-8.6z" fill="url(#Shape_29_)"/>
                      <path id="Shape_7_" class="st8" d="M60.7 2.9H46.8v57.8h13.8z"/>
                      <linearGradient id="Shape_30_" gradientUnits="userSpaceOnUse" x1="-274.222" y1="513.193" x2="-273.774" y2="512.564" gradientTransform="matrix(29.2 0 0 -24.8 8300.203 12761.5)">
                        <stop offset="0" stop-color="#00351b" stop-opacity=".972"/>
                        <stop offset=".526" stop-color="#005e3d" stop-opacity=".987"/>
                        <stop offset="1" stop-color="#008358"/>
                      </linearGradient>
                      <path id="Shape_8_" d="M315.5 52.5l-4.3-6.9-5.9-9.7c-2.1.6-6.9 1.7-13.6 1.8h-.3l12.6 23h16.6l-5.1-8.2z" fill="url(#Shape_30_)"/>
                      <linearGradient id="Shape_31_" gradientUnits="userSpaceOnUse" x1="-275.333" y1="518.205" x2="-274.927" y2="518.205" gradientTransform="matrix(32.7 0 0 -35.2 9287.603 18261.299)">
                        <stop offset="0" stop-color="#00351b" stop-opacity=".972"/>
                        <stop offset=".526" stop-color="#005e3d" stop-opacity=".987"/>
                        <stop offset="1" stop-color="#008358"/>
                      </linearGradient>
                      <path id="Shape_9_" d="M315.6 12.1c-1.3-2.2-3-4-5.1-5.4s-4.5-2.3-7.2-2.9c-2.7-.6-5.4-.9-8.2-.9h-10.3v11.4h9.3c1 0 2.2.1 3.3.3 1.1.2 2.1.4 3 .9 1 .4 1.7 1.1 2.3 2 .6.9.9 2 .9 3.3 0 1.5-.3 2.7-1 3.6-.6.9-1.5 1.6-2.4 2.2-1 .5-2.1.9-3.3 1-1.2.1-2.4.3-3.6.3h-8.4v10.2H291.8c6.7-.1 11.5-1.2 13.6-1.8 3.8-1.1 6.8-3 8.9-5.7 2.2-2.7 3.2-5.9 3.2-9.9-.1-3.7-.7-6.4-1.9-8.6z" fill="url(#Shape_31_)"/>
                      <path id="Shape_10_" class="st8" d="M286.4 27.6l.1-13.4V2.9h-13.8v57.8h13.8V27.6z"/>
                      <linearGradient id="Shape_32_" gradientUnits="userSpaceOnUse" x1="-273.734" y1="491.5" x2="-273.256" y2="491.5" gradientTransform="matrix(28.5 0 0 -11.7 7911.5 5759.3)">
                        <stop offset="0" stop-color="#00351b" stop-opacity=".972"/>
                        <stop offset=".526" stop-color="#005e3d" stop-opacity=".987"/>
                        <stop offset="1" stop-color="#008358"/>
                      </linearGradient>
                      <path id="Shape_11_" fill="url(#Shape_32_)" d="M130 14.6h-28.5V2.9h23.4z"/>
                      <linearGradient id="Shape_33_" gradientUnits="userSpaceOnUse" x1="-276.273" y1="491.839" x2="-275.901" y2="491.839" gradientTransform="matrix(37.9 0 0 -11.8 10581.099 5835.3)">
                        <stop offset="0" stop-color="#00351b" stop-opacity=".972"/>
                        <stop offset=".526" stop-color="#005e3d" stop-opacity=".987"/>
                        <stop offset="1" stop-color="#008358"/>
                      </linearGradient>
                      <path id="Shape_12_" fill="url(#Shape_33_)" d="M139.4 37.5h-37.9V25.7h32.6z"/>
                      <linearGradient id="Shape_34_" gradientUnits="userSpaceOnUse" x1="-277.844" y1="491.5" x2="-277.541" y2="491.5" gradientTransform="matrix(47.6 0 0 -11.7 13335.901 5805.4)">
                        <stop offset="0" stop-color="#00351b" stop-opacity=".972"/>
                        <stop offset=".526" stop-color="#005e3d" stop-opacity=".987"/>
                        <stop offset="1" stop-color="#008358"/>
                      </linearGradient>
                      <path id="Shape_13_" fill="url(#Shape_34_)" d="M149.1 60.7h-47.6V49h42.4z"/>
                      <path id="Shape_14_" class="st8" d="M110.9 2.9v57.8H97.2V2.9z"/>
                      <path id="Rectangle-path" class="st8" d="M322.5 2.9h13.9v57.8h-13.9z"/>
                      <linearGradient id="Shape_35_" gradientUnits="userSpaceOnUse" x1="-274.839" y1="522.982" x2="-274.554" y2="523.647" gradientTransform="matrix(32.1 0 0 -57.9 8986.302 30337.602)">
                        <stop offset="0" stop-color="#00351b" stop-opacity=".972"/>
                        <stop offset=".526" stop-color="#005e3d" stop-opacity=".987"/>
                        <stop offset="1" stop-color="#008358"/>
                      </linearGradient>
                      <path id="Shape_15_" fill="url(#Shape_35_)" d="M153.9 60.7l15.6-57.9H186l-15.6 57.9z"/>
                      <path id="Shape_16_" class="st15" d="M130.4 2.8l23.5 57.9h16.5L147 2.9z"/>
                      <linearGradient id="Shape_36_" gradientUnits="userSpaceOnUse" x1="-274.841" y1="523.691" x2="-274.458" y2="523.507" gradientTransform="matrix(30.4 0 0 -57.9 8589.498 30337.602)">
                        <stop offset="0" stop-color="#00351b" stop-opacity=".972"/>
                        <stop offset=".526" stop-color="#005e3d" stop-opacity=".987"/>
                        <stop offset="1" stop-color="#008358"/>
                      </linearGradient>
                      <path id="Shape_17_" fill="url(#Shape_36_)" d="M246.9 2.8l-7 17.2 16.5 40.7h13.9z"/>
                      <path id="Shape_18_" class="st15" d="M232.5 38.2l5.5-13.4 8.9-22h-16.5l-23.5 57.9h16.6z"/>
                      <linearGradient id="Shape_37_" gradientUnits="userSpaceOnUse" x1="-276.862" y1="496.046" x2="-276.353" y2="496.046" gradientTransform="matrix(41.8 0 0 -13.2 11587.5 6557.3)">
                        <stop offset=".006" stop-color="#f58220" stop-opacity=".972"/>
                        <stop offset=".071" stop-color="#ef7b1f" stop-opacity=".974"/>
                        <stop offset=".392" stop-color="#de661e" stop-opacity=".983"/>
                        <stop offset=".705" stop-color="#d4591d" stop-opacity=".992"/>
                        <stop offset="1" stop-color="#d1541d"/>
                      </linearGradient>
                      <path id="Shape_19_" d="M42.1 2.9c-3.1 1.4-6 3.2-8.7 5.4-3.1 2.4-5.7 4.9-8.1 7.8H.3V2.9h41.8z" fill="url(#Shape_37_)"/>
                      <path id="Shape_20_" d="M12.5 60.7h16.7c0-5.9-.4-11.4 0-17.6 0-7 1.7-13.3 1.7-13.3 1.1-5.5 6.2-10.2 11.3-12.5V2.9c-1.3.1-12.9 6.5-16.8 10.2-4.4 4.1-7.6 9.2-9.4 14.6-.3.7-.3 1.2-.6 2.2-1.4 4.7-2.1 12.7-2.1 13.1-.3 4.3-.3 8.4-.5 12.5l-.3 5.2z" fill="#ed1b2e"/>
                      <path id="Shape_24_" class="st8" d="M394.3 36.2l-.9-.3c-1.8-.6-3.7-1.3-5.4-2.1s-3.3-1.8-4.7-3.1c-1.4-1.3-2.4-2.8-3.3-4.6-.9-1.8-1.2-4-1.2-6.5 0-3.2.6-5.9 1.9-8.1 1.3-2.2 3-4 5.1-5.5 2.1-1.5 4.4-2.5 7.2-3.2 2.6-.7 5.3-1 8-1 3.2 0 6.5.6 9.9 1.7 3.4 1.2 6.4 2.9 8.9 5.2l-8.9 9.4c-1.2-1.5-2.7-2.7-4.6-3.5-1.9-.9-3.8-1.3-5.6-1.3-1 0-1.8.1-2.8.3-1 .2-1.8.4-2.5.9-.8.4-1.4 1-1.9 1.7s-.8 1.6-.8 2.8c0 .9.2 1.7.6 2.4.4.6 1 1.2 1.7 1.7.8.5 1.7.9 2.8 1.3 1 .4 2.3.8 3.7 1.2l1.8.6"/>
                    </g>
                  </g>
                </g>
              </g>
            </g>
          </g>
        </g>
      </g>
    </g>
  </g>
  <path class="st5" d="M425.5 0c2.5 0 4.5 2 4.5 4.5S428 9 425.5 9s-4.6-2-4.6-4.5 2-4.5 4.6-4.5zm-.1.9c-1.9 0-3.4 1.6-3.4 3.5 0 2 1.5 3.5 3.5 3.5 1.9 0 3.4-1.6 3.4-3.5-.1-1.9-1.5-3.5-3.5-3.5zm-.7 5.9h-1V2.3c.4-.1 1-.1 1.7-.1.8 0 1.2.1 1.5.4.3.2.5.5.5.9 0 .5-.4.9-.9 1.1v.1c.4.1.6.5.8 1.1.1.7.2.9.3 1.1h-1.1c-.1-.2-.2-.5-.4-1.1-.1-.5-.4-.7-.9-.7h-.5v1.7zm.1-2.5h.5c.6 0 1-.2 1-.6 0-.4-.3-.7-.9-.7-.3 0-.5 0-.6.1v1.2z"/>
</svg>
